<svg width="48" height="48" viewBox="0 0 48 48" fill="none" xmlns="http://www.w3.org/2000/svg">
<g clip-path="url(#clip0_610_2097)">
<path d="M25.3 29.3L20.7 24.7C20.6 24.6 20.5294 24.4917 20.488 24.375C20.446 24.2583 20.425 24.1333 20.425 24C20.425 23.8667 20.446 23.7417 20.488 23.625C20.5294 23.5083 20.6 23.4 20.7 23.3L25.3 18.7C25.4834 18.5167 25.7167 18.425 26 18.425C26.2834 18.425 26.5167 18.5167 26.7 18.7C26.8834 18.8833 26.975 19.1167 26.975 19.4C26.975 19.6833 26.8834 19.9167 26.7 20.1L22.8 24L26.7 27.9C26.8834 28.0833 26.975 28.3167 26.975 28.6C26.975 28.8833 26.8834 29.1167 26.7 29.3C26.5167 29.4833 26.2834 29.575 26 29.575C25.7167 29.575 25.4834 29.4833 25.3 29.3Z" fill="black"/>
</g>
<defs>
<clipPath id="clip0_610_2097">
<rect x="4" y="4" width="40" height="40" rx="20" fill="white"/>
</clipPath>
</defs>
</svg>
