<svg width="33" height="32" viewBox="0 0 33 32" fill="none" xmlns="http://www.w3.org/2000/svg">
<path d="M23.676 24.1125L24.446 23.3425L22.3835 21.28V18.2H21.2835V21.72L23.676 24.1125ZM7.5335 24.8C6.9285 24.8 6.4104 24.5848 5.9792 24.1543C5.54873 23.7231 5.3335 23.205 5.3335 22.6V7.2C5.3335 6.595 5.54873 6.0769 5.9792 5.6457C6.4104 5.21523 6.9285 5 7.5335 5H22.9335C23.5385 5 24.0566 5.21523 24.4878 5.6457C24.9183 6.0769 25.1335 6.595 25.1335 7.2V14.57C24.7852 14.405 24.4277 14.2627 24.061 14.1432C23.6943 14.0244 23.3185 13.9375 22.9335 13.8825V7.2H7.5335V22.6H14.1885C14.2435 23.0033 14.3308 23.3883 14.4503 23.755C14.5691 24.1217 14.711 24.47 14.876 24.8H7.5335ZM7.5335 21.5V22.6V7.2V13.8825V13.8V21.5ZM9.7335 20.4H14.216C14.271 20.015 14.3579 19.6392 14.4767 19.2725C14.5962 18.9058 14.7293 18.5483 14.876 18.2H9.7335V20.4ZM9.7335 16H16.4435C17.0302 15.45 17.6854 14.9917 18.4092 14.625C19.1337 14.2583 19.9085 14.0108 20.7335 13.8825V13.8H9.7335V16ZM9.7335 11.6H20.7335V9.4H9.7335V11.6ZM21.8335 27C20.3118 27 19.0149 26.4639 17.9428 25.3918C16.8699 24.3189 16.3335 23.0217 16.3335 21.5C16.3335 19.9783 16.8699 18.6811 17.9428 17.6082C19.0149 16.5361 20.3118 16 21.8335 16C23.3552 16 24.6524 16.5361 25.7253 17.6082C26.7974 18.6811 27.3335 19.9783 27.3335 21.5C27.3335 23.0217 26.7974 24.3189 25.7253 25.3918C24.6524 26.4639 23.3552 27 21.8335 27Z" fill="#72675B"/>
</svg>
