<svg width="25" height="24" viewBox="0 0 25 24" fill="none" xmlns="http://www.w3.org/2000/svg">
<path d="M19.6667 4C20.1972 4 20.7059 4.21071 21.081 4.58579C21.456 4.96086 21.6667 5.46957 21.6667 6V8.268C21.9708 8.44353 22.2232 8.696 22.3988 9.00003C22.5743 9.30406 22.6667 9.64894 22.6667 10V14C22.6667 14.3511 22.5743 14.6959 22.3988 15C22.2232 15.304 21.9708 15.5565 21.6667 15.732V18C21.6667 18.5304 21.456 19.0391 21.081 19.4142C20.7059 19.7893 20.1972 20 19.6667 20H5.66675C5.13632 20 4.62761 19.7893 4.25253 19.4142C3.87746 19.0391 3.66675 18.5304 3.66675 18V6C3.66675 5.46957 3.87746 4.96086 4.25253 4.58579C4.62761 4.21071 5.13632 4 5.66675 4H19.6667ZM19.6667 6H5.66675V18H19.6667V16H15.6667C14.6232 16 13.621 15.5922 12.8739 14.8636C12.1268 14.135 11.694 13.1433 11.6679 12.1C11.6418 11.0568 12.0245 10.0447 12.7342 9.27963C13.4439 8.51457 14.4245 8.05716 15.4667 8.005L15.6667 8H19.6667V6ZM20.6667 10H15.6667C15.1363 10 14.6276 10.2107 14.2525 10.5858C13.8775 10.9609 13.6667 11.4696 13.6667 12C13.6667 12.5304 13.8775 13.0391 14.2525 13.4142C14.6276 13.7893 15.1363 14 15.6667 14H20.6667V10ZM16.6667 11C16.932 11 17.1863 11.1054 17.3739 11.2929C17.5614 11.4804 17.6667 11.7348 17.6667 12C17.6667 12.2652 17.5614 12.5196 17.3739 12.7071C17.1863 12.8946 16.932 13 16.6667 13C16.4015 13 16.1472 12.8946 15.9596 12.7071C15.7721 12.5196 15.6667 12.2652 15.6667 12C15.6667 11.7348 15.7721 11.4804 15.9596 11.2929C16.1472 11.1054 16.4015 11 16.6667 11Z" fill="#72675B"/>
</svg>
